<svg width="118" height="33" viewBox="0 0 118 33" fill="none" xmlns="http://www.w3.org/2000/svg">
<g clip-path="url(#clip0_11_91755)">
<path d="M16.749 4.87575L19.6652 16.4845L16.7468 28.1242H7.82927L4.91307 16.5L7.82927 4.87575H16.749ZM17.4141 0H7.16638C5.3112 0 3.69411 1.25883 3.24485 3.05178L0.128417 15.4628C-0.0428057 16.1432 -0.0428057 16.8568 0.128417 17.5372L3.24251 29.9482C3.69189 31.7411 5.30899 33 7.16417 33H17.4119C19.267 33 20.8841 31.7411 21.3335 29.9482L24.4632 17.4619C24.6234 16.8213 24.6234 16.1498 24.4632 15.5071L21.3357 3.05178C20.8863 1.25883 19.2692 0.00221231 17.4141 0.00221231V0Z" fill="#CAAAF0"/>
<path d="M42.984 28.556C40.683 28.556 38.6696 27.126 37.551 24.9651V28.1111H33.6841V5.38998H37.551V14.0653C38.6696 11.8091 40.7149 10.3791 43.0159 10.3791C47.522 10.3791 50.4942 14.0018 50.4942 19.4675C50.4942 24.8698 47.4262 28.556 42.984 28.556ZM37.551 20.2938C37.551 23.122 39.5644 25.41 41.9933 25.41C44.5819 25.41 46.3715 23.0267 46.3715 19.4675C46.3715 15.9084 44.5819 13.5251 41.9933 13.5251C39.5005 13.5251 37.551 15.9084 37.551 18.7684V20.2938ZM66.6169 28.556C64.5076 28.556 63.1654 27.2531 63.1654 24.8062V24.6473C62.1427 26.9035 60.1933 28.556 57.2531 28.556C54.0573 28.556 52.1078 26.6493 52.1078 23.9164C52.1078 19.976 56.1026 17.5291 63.1654 16.83V16.6711C63.1654 14.6055 62.2706 13.2391 60.2892 13.2391C58.084 13.2391 56.1346 14.5102 54.8882 17.0207L52.1078 14.8915C54.249 11.8727 57.2851 10.3791 60.6407 10.3791C65.2427 10.3791 67.0643 12.8895 67.0643 16.544V24.8062C67.0643 25.5689 67.32 25.8867 67.9592 25.8867C68.3746 25.8867 68.6942 25.8231 69.2055 25.5689L68.7262 28.1111C68.1509 28.3653 67.3839 28.556 66.6169 28.556ZM56.1665 23.3444C56.1665 24.6155 57.0614 25.41 58.4356 25.41C60.7685 25.41 63.1654 23.5033 63.1654 20.1667V19.4993C59.0428 19.9124 56.1665 20.9929 56.1665 23.3444ZM71.0729 28.1111V10.824H74.9718V14.9233C76.0584 12.254 77.848 10.3791 79.6377 10.3791C80.6604 10.3791 81.3954 10.6969 82.0985 11.396L80.5325 14.8915C79.8614 14.2878 79.3181 14.0018 78.4872 14.0018C76.8893 14.0018 74.9718 16.0991 74.9718 19.5947V24.4249C74.9718 25.8867 75.0037 26.9989 75.1316 28.1111H71.0729ZM83.7439 28.1111V10.824H87.6428V14.9233C88.7294 12.254 90.519 10.3791 92.3087 10.3791C93.3314 10.3791 94.0664 10.6969 94.7695 11.396L93.2035 14.8915C92.5324 14.2878 91.9891 14.0018 91.1582 14.0018C89.5603 14.0018 87.6428 16.0991 87.6428 19.5947V24.4249C87.6428 25.8867 87.6747 26.9989 87.8026 28.1111H83.7439ZM103.052 28.556C98.322 28.556 94.6468 25.41 94.6468 19.8807C94.6468 14.2242 98.0664 10.3791 102.956 10.3791C108.197 10.3791 110.594 14.3831 110.594 20.2302H98.6096C98.7694 23.6622 100.623 25.696 103.052 25.696C105.385 25.696 107.015 23.9164 107.622 21.9462L110.786 24.0118C108.9 27.0942 106.12 28.556 103.052 28.556ZM98.8014 17.5291H106.663C106.407 14.9551 105.161 13.2073 102.956 13.2073C100.847 13.2073 99.3127 14.7962 98.8014 17.5291ZM113.205 28.1111V5.38998H117.072V23.98C117.072 25.2829 117.136 26.7129 117.264 28.1111H113.205Z" fill="#121417"/>
</g>
<defs>
<clipPath id="clip0_11_91755">
<rect width="118" height="33" fill="white"/>
</clipPath>
</defs>
</svg>
